<svg width="1400" height="500" viewBox="0 0 1400 500" fill="none" xmlns="http://www.w3.org/2000/svg">
<g clip-path="url(#clip0_12086_50)">
<g clip-path="url(#clip1_12086_50)">
<g filter="url(#filter0_nn_12086_50)">
<path d="M1494.11 227.72V258.937C1463.73 253 1436.17 253.973 1418.81 259.503C1397.76 266.201 1387.76 277.094 1364.34 285.747C1340.92 294.41 1314.87 294.41 1309.87 284.632C1304.87 274.855 1300.4 272.9 1275.92 274.298C1251.45 275.696 1226.19 285.473 1182.77 291.614C1139.36 297.755 1077.78 288.26 1023.57 293.844C969.366 299.436 900.42 285.747 864.375 283.518C828.322 281.279 824.112 292.454 798.589 301.108C773.059 309.762 730.961 307.249 714.218 302.842C695.191 297.825 704.788 287.986 708.44 279.58C712.092 271.183 682.868 268.599 648.474 266.343C614.08 264.078 535.554 265.697 492.939 268.281C450.333 270.864 427.412 285.712 391.559 288.092C355.706 290.463 356.431 273.227 364.569 263.467C373.857 252.345 365.061 242.833 324.339 253.61C292.146 262.131 247.038 272.041 169.171 272.041C96.5812 272.041 -8.15094 257.052 -56.0354 241.532V230.405C-50.9743 231.865 -45.8465 231.296 -40.6437 232.419C436.27 232.419 992.591 227.72 1494.11 227.72Z" fill="#11326F"/>
</g>
<path d="M1494.11 258.936V540.226H-56.0354V241.531C-8.15094 257.051 96.5812 272.04 169.171 272.04C247.038 272.04 292.146 262.13 324.339 253.609C365.061 242.832 373.857 252.344 364.569 263.466C356.431 273.226 355.706 290.463 391.559 288.091C427.412 285.711 450.333 270.864 492.939 268.28C535.554 265.696 614.08 264.077 648.474 266.342C682.868 268.598 712.092 271.182 708.44 279.579C704.788 287.985 695.191 297.825 714.218 302.842C730.961 307.248 773.059 309.761 798.589 301.107C824.111 292.454 828.322 281.278 864.375 283.517C900.42 285.747 969.366 299.435 1023.57 293.843C1077.78 288.259 1139.36 297.754 1182.77 291.613C1226.19 285.472 1251.45 275.695 1275.92 274.297C1300.4 272.899 1304.87 274.854 1309.87 284.632C1314.87 294.409 1340.92 294.409 1364.34 285.747C1387.76 277.093 1397.76 266.2 1418.81 259.502C1436.17 253.972 1463.73 252.999 1494.11 258.936Z" fill="#163B71"/>
<g filter="url(#filter1_nn_12086_50)">
<path d="M-439.216 400.728C-447.91 378.91 -463.716 372.849 -517.457 368V528H526.543C519.43 480.727 400.884 445.576 279.176 441.939C157.468 438.303 74.4854 472.242 6.51868 462.545C-61.448 452.849 -144.431 389.818 -242.429 384.97C-340.428 380.121 -319.879 409.212 -363.347 421.333C-406.814 433.455 -430.523 422.546 -439.216 400.728Z" fill="#2E599B"/>
</g>
<path d="M205.147 376.284C241.895 376.152 278.786 378.211 314.992 384.763C318.407 385.388 321.823 386.059 325.212 386.774C325.296 386.792 325.371 386.843 325.419 386.915C325.466 386.987 325.484 387.075 325.467 387.159C325.45 387.244 325.399 387.318 325.327 387.366C325.255 387.414 325.168 387.431 325.083 387.415C321.688 386.756 318.269 386.141 314.852 385.568C278.627 379.572 241.836 377.796 205.155 377.927C188.868 378.009 172.541 378.501 156.312 379.382C146.935 379.9 137.564 380.754 128.35 382.512C124.953 383.163 121.583 383.944 118.265 384.898C118.161 384.928 118.048 384.916 117.953 384.864C117.858 384.812 117.787 384.725 117.756 384.621C117.725 384.517 117.737 384.405 117.788 384.309C117.84 384.214 117.927 384.142 118.03 384.11C121.358 383.086 124.741 382.238 128.152 381.525C137.406 379.601 146.82 378.617 156.229 377.998C172.475 376.945 188.83 376.366 205.147 376.284Z" fill="#124C8D"/>
<path d="M-129.853 366.26C-125.786 366.263 -121.69 366.348 -117.59 366.481C-96.05 367.627 -73.9295 367.799 -53.3838 376.045C-37.3304 385.21 -25.4681 400.735 -6.5791 402.167C-6.05664 402.247 -5.53031 402.325 -5.00098 402.401C24.1902 406.298 54.2829 404.535 82.7715 396.727C86.0907 395.789 89.3632 394.671 92.6143 393.493C96.4459 392.103 100.249 390.624 104.076 389.204C104.126 389.185 104.181 389.188 104.229 389.21C104.278 389.232 104.316 389.272 104.335 389.322C104.354 389.372 104.352 389.427 104.33 389.475C104.308 389.524 104.268 389.562 104.219 389.581C100.412 391.041 96.626 392.565 92.8047 394.006C89.562 395.227 86.2924 396.394 82.9619 397.385C54.4734 405.611 24.2497 407.902 -5.22852 403.993C-5.76309 403.917 -6.29444 403.838 -6.82227 403.758C-26.0894 402.355 -38.8309 386.142 -54.123 377.509C-73.8911 369.56 -96.2501 369.241 -117.645 368.142C-121.729 368.011 -125.811 367.93 -129.853 367.928C-130.074 367.929 -130.286 367.841 -130.442 367.684C-130.599 367.528 -130.687 367.316 -130.687 367.094C-130.687 366.873 -130.599 366.661 -130.442 366.505C-130.286 366.348 -130.074 366.26 -129.853 366.26Z" fill="#124C8D"/>
<path d="M608.609 499.915C608.872 499.537 609.391 499.443 609.769 499.706C613.709 502.445 614.405 507.505 611.933 512.172C609.461 516.841 603.832 521.194 594.945 523.027C594.494 523.12 594.054 522.83 593.961 522.379C593.868 521.928 594.158 521.487 594.609 521.394C603.139 519.634 608.276 515.515 610.46 511.392C612.645 507.266 611.89 503.212 608.817 501.075C608.439 500.812 608.346 500.293 608.609 499.915Z" fill="#27669E"/>
<g filter="url(#filter2_nn_12086_50)">
<path d="M1494.1 15.4722V164.445C1450.39 163.552 1415.83 168.126 1376.44 179.523C1341.56 189.619 1317.03 209.068 1296.43 221.747H1296.42C1287.79 223.6 1278.58 225.592 1269.02 227.625C1162.57 228.032 708.5 229.767 673.181 229.902C685.844 211.33 702.237 189.906 715.104 177.461C730.846 162.251 746.021 151.217 764.289 155.986C782.557 160.765 776.379 184.027 787.06 203.414C797.732 222.8 822.746 210.572 837.929 192.973C853.104 175.373 876.709 171.498 876.709 208.785C890.742 199.671 902.957 198.538 922.2 203.883C941.436 209.227 969.543 207.608 986.794 198.697C1004.05 189.778 1011.23 179.408 1036.73 170.825C1062.23 162.233 1070.79 174.55 1083.31 186.381C1095.84 198.211 1107.28 191.238 1123.78 180.868C1140.28 170.498 1161.35 163.207 1182.58 173.577C1203.8 183.947 1229.31 191.893 1252.82 182.815C1276.34 173.736 1280 158.667 1284.13 129.008C1287.49 104.835 1302.79 85.2416 1326.46 77.1453C1350.13 69.0402 1383.09 77.3046 1394.54 77.1453C1406 76.986 1409.21 72.9335 1412.72 57.8647C1416.23 42.7871 1425.24 9.24293 1468.92 10.7029C1477.71 10.9949 1486.17 12.6496 1494.1 15.4722Z" fill="#0B2552"/>
</g>
<path d="M1036.46 170.041C1044.82 167.202 1054.35 165.62 1062.95 169.129C1071.52 172.586 1077.44 179.723 1083.81 185.664C1083.84 185.694 1083.87 185.723 1083.9 185.753C1095.05 198.243 1111.49 187.718 1123.34 180.174C1140.51 169.004 1163.73 163.002 1182.84 173.023C1191.39 177.246 1200.24 180.906 1209.45 183.376C1214.99 184.86 1220.67 185.902 1226.39 186.289C1226.49 186.295 1226.58 186.339 1226.64 186.41C1226.7 186.481 1226.73 186.574 1226.73 186.669C1226.72 186.764 1226.68 186.852 1226.61 186.915C1226.54 186.978 1226.44 187.01 1226.35 187.005C1220.56 186.69 1214.82 185.711 1209.21 184.279C1199.9 181.897 1190.94 178.301 1182.3 174.133C1163.58 164.557 1141.15 170.49 1124.21 181.564C1117.85 185.512 1111.56 189.799 1104.22 192.231C1096.92 195.028 1088.03 192.579 1082.71 187.011C1082.68 186.981 1082.65 186.951 1082.62 186.921C1076.18 180.885 1070.35 173.944 1062.31 170.719C1054.29 167.42 1045.2 168.845 1036.99 171.611C1018.4 176.906 1004.14 190.181 987.114 199.326C967.174 208.692 944.132 209.63 922.984 204.578C922.679 204.496 922.375 204.412 922.073 204.327C916.846 202.855 911.525 201.658 906.125 201.212C906.024 201.204 905.931 201.156 905.865 201.079C905.799 201.002 905.767 200.903 905.774 200.802C905.782 200.701 905.829 200.607 905.906 200.541C905.983 200.475 906.083 200.442 906.184 200.449C911.662 200.847 917.044 202.006 922.319 203.439C922.617 203.521 922.918 203.601 923.221 203.679C944.125 208.495 967.093 207.332 986.466 198.07C1003.06 189.062 1017.68 175.444 1036.46 170.041Z" fill="#04477D"/>
<g filter="url(#filter3_nn_12086_50)">
<path d="M308.515 230.726C173 230.726 18.246 243.666 -135.16 222.015L-131.584 78.0977C-123.577 70.4252 -115.032 63.1901 -105.959 56.4756C-74.6865 33.3263 -9.67075 -4.13093 32.7063 13.9955C75.0756 32.1217 64.8596 86.6823 50.9863 125.63C79.7941 102.094 98.0922 100.832 108.025 114.763C117.987 128.737 109.758 156.591 122.458 173.105C135.158 189.61 158.201 183.115 175.214 167.06C192.227 150.997 205.094 153.203 213.42 159.922C221.746 166.633 223.439 183.047 234.397 193.658C245.347 204.26 277.774 205.977 296.633 219.198C302.477 223.294 306.272 225.735 308.523 230.726L308.515 230.726Z" fill="#0B2552"/>
</g>
<path d="M84.9344 105.839C93.4436 103.602 103.658 106.683 108.604 114.352C119.467 132.859 110.651 156.011 123.133 172.587C127.742 178.827 135.431 182.3 143.137 181.848C155.049 181.219 165.947 174.549 174.652 166.465C184.276 156.637 201.789 148.617 213.822 159.424C220.816 165.71 222.673 174.913 226.916 182.551C228.985 186.507 231.463 190.273 234.646 193.401C234.713 193.468 234.753 193.558 234.754 193.653C234.756 193.748 234.719 193.839 234.654 193.907C234.588 193.975 234.498 194.014 234.403 194.016C234.308 194.017 234.217 193.981 234.148 193.915C230.84 190.773 228.249 186.965 226.093 182.988C221.726 175.323 219.557 166.084 213.019 160.421C201.55 150.382 185.311 157.938 175.776 167.657C166.909 175.955 155.812 182.889 143.212 183.577C135.063 184.085 126.634 180.269 121.782 173.624C108.782 155.933 117.724 132.532 107.446 115.176C96.8143 99.0036 75.0747 108.789 61.9997 117.92C58.2891 120.426 54.7152 123.118 51.2292 125.928C51.1507 125.991 51.0498 126.021 50.9491 126.011C50.8485 126 50.7557 125.95 50.6916 125.872C50.6276 125.793 50.5977 125.693 50.6074 125.592C50.6172 125.492 50.6658 125.399 50.7434 125.334C54.2064 122.469 57.7646 119.719 61.4725 117.152C68.6351 112.25 76.2871 107.77 84.9344 105.839Z" fill="#04477D"/>
<path d="M1495.81 121.339L1471.45 227.71H1160.93C1160.93 227.71 1192.06 227.82 1207.48 216.592C1224.29 204.346 1266.88 195.347 1289.29 183.446C1311.71 171.554 1338.14 147.893 1378.03 136.346C1417.42 124.949 1452.1 120.445 1495.81 121.339Z" fill="#163B71"/>
<path d="M1457.91 56.4605C1462.51 56.4377 1467.08 57.0039 1471.55 57.9634C1471.77 58.0098 1471.96 58.1402 1472.08 58.3257C1472.2 58.5112 1472.24 58.7366 1472.19 58.9526C1472.15 59.1687 1472.02 59.3578 1471.83 59.478C1471.64 59.5983 1471.42 59.6402 1471.2 59.5942C1466.82 58.6641 1462.37 58.1241 1457.92 58.1538C1443.42 57.8609 1429.67 65.9587 1422.07 78.23C1414.95 88.9617 1411.4 101.507 1408.05 113.984C1405.73 121.155 1404.09 131.424 1394.71 133.394C1386.05 134.342 1378.79 129.866 1371.72 126.058C1335.4 104.448 1299.1 145.97 1292 180.646C1291.02 185.04 1290.4 189.513 1290.24 194.007C1290.24 194.084 1290.21 194.157 1290.15 194.21C1290.1 194.264 1290.02 194.293 1289.95 194.291C1289.87 194.288 1289.79 194.256 1289.74 194.2C1289.69 194.144 1289.66 194.069 1289.66 193.992C1289.75 189.454 1290.33 184.931 1291.26 180.485C1297.91 145.584 1334.44 102.431 1372.56 124.604C1379.49 128.37 1386.89 132.591 1394.41 131.68C1402.15 130.261 1404.12 120.764 1406.35 113.507C1409.69 101.087 1413.31 88.2602 1420.61 77.272C1428.4 64.6373 1442.94 56.0938 1457.91 56.4605Z" fill="#04477D"/>
<path d="M1496.04 155.091C1496.24 155.007 1496.47 155.007 1496.68 155.092C1496.88 155.177 1497.04 155.339 1497.13 155.543C1497.21 155.747 1497.21 155.977 1497.13 156.181C1497.04 156.385 1496.88 156.547 1496.68 156.632C1493.72 157.863 1490.85 159.243 1488 160.701C1475.02 168.772 1458.99 171.274 1443.87 170.307C1438.27 170.082 1432.56 170.436 1426.94 171.136C1410.76 173.206 1394.8 177.73 1379.89 184.518C1361.24 193.06 1343.95 205.031 1330.63 220.647C1328.56 223.078 1326.59 225.595 1324.73 228.198C1324.6 228.378 1324.41 228.499 1324.19 228.534C1323.97 228.569 1323.75 228.516 1323.57 228.386C1323.39 228.256 1323.27 228.06 1323.23 227.842C1323.2 227.624 1323.25 227.4 1323.38 227.222C1325.3 224.6 1327.32 222.066 1329.44 219.622C1343.09 203.925 1360.57 191.959 1379.35 183.35C1394.36 176.518 1410.28 171.376 1426.71 169.27C1432.41 168.56 1438.21 168.202 1443.94 168.439C1459.06 169.366 1474.13 167.14 1487.22 159.166C1490.09 157.712 1493.02 156.325 1496.04 155.091Z" fill="#77B6E8"/>
<path d="M1364.35 180.546C1365.62 167.214 1331.96 166.042 1317.46 189.18C1309.47 201.936 1307.93 216.534 1306.4 227.231C1325.91 227.232 1371.48 227.429 1390.52 227.232C1398.06 209.136 1404.54 185.178 1378.45 205.212C1392.83 185.055 1376.26 167.551 1364.35 180.546Z" fill="#076D55"/>
<path d="M1346.72 170.192C1351.88 169.714 1356.63 170.391 1360.05 172.125C1362.76 173.501 1364.71 175.592 1365.24 178.297C1367.94 175.987 1370.86 174.965 1373.65 175.084C1376.99 175.228 1380 177.012 1382.07 179.859C1385.63 184.762 1386.44 192.753 1381.93 201.455C1383.52 200.372 1384.98 199.484 1386.3 198.781C1388.65 197.526 1390.65 196.824 1392.3 196.662C1393.99 196.497 1395.39 196.889 1396.42 197.889C1397.41 198.856 1397.9 200.253 1398.09 201.803C1398.46 204.887 1397.71 209.116 1396.44 213.611C1395.17 218.141 1393.33 223.072 1391.44 227.617C1391.28 227.985 1390.93 228.226 1390.53 228.231C1371.49 228.428 1325.9 228.231 1306.4 228.231C1306.11 228.231 1305.83 228.105 1305.64 227.886C1305.45 227.667 1305.37 227.376 1305.41 227.09C1306.94 216.454 1308.49 201.621 1316.61 188.65C1324.05 176.773 1336.4 171.148 1346.72 170.192ZM1359.15 173.909C1356.16 172.396 1351.82 171.727 1346.91 172.182C1337.1 173.091 1325.36 178.45 1318.31 189.711C1310.73 201.814 1309.04 215.613 1307.55 226.233C1327.42 226.24 1370.82 226.419 1389.84 226.236C1391.63 221.908 1393.33 217.295 1394.52 213.069C1395.78 208.608 1396.43 204.707 1396.1 202.044C1395.94 200.72 1395.56 199.839 1395.02 199.319C1394.52 198.831 1393.76 198.528 1392.5 198.651C1391.21 198.777 1389.49 199.349 1387.24 200.547C1384.99 201.739 1382.29 203.521 1379.05 206.005C1378.66 206.306 1378.11 206.275 1377.75 205.931C1377.4 205.587 1377.35 205.034 1377.63 204.631C1384.65 194.804 1383.97 185.869 1380.45 181.035C1378.69 178.611 1376.22 177.195 1373.56 177.082C1370.91 176.968 1367.91 178.144 1365.09 181.221C1364.8 181.538 1364.34 181.633 1363.95 181.458C1363.55 181.284 1363.32 180.879 1363.36 180.451C1363.62 177.644 1362.1 175.405 1359.15 173.909Z" fill="#014737"/>
<path d="M1350.73 174.954C1350.82 174.966 1350.89 175.01 1350.95 175.077C1351 175.144 1351.02 175.228 1351.01 175.312C1351 175.397 1350.96 175.474 1350.89 175.526C1350.18 176.092 1349.54 176.77 1348.92 177.467C1338.33 190.61 1330.32 206.501 1328.35 223.233C1328.26 224.155 1328.2 225.095 1328.17 226.018C1328.16 226.239 1328.07 226.447 1327.9 226.596C1327.74 226.746 1327.52 226.825 1327.3 226.815C1327.08 226.806 1326.87 226.709 1326.72 226.546C1326.57 226.383 1326.49 226.168 1326.5 225.948C1326.55 224.99 1326.63 224.017 1326.74 223.066C1329.11 205.849 1337.44 190.139 1348.4 177C1349.06 176.298 1349.71 175.62 1350.5 175.017C1350.56 174.966 1350.65 174.943 1350.73 174.954Z" fill="#10896C"/>
<path d="M1346.95 202.795C1347.01 202.792 1347.07 202.813 1347.12 202.854C1347.16 202.895 1347.19 202.952 1347.2 203.013C1347.2 203.074 1347.18 203.136 1347.14 203.184C1347.1 203.232 1347.05 203.263 1346.99 203.27C1346.66 203.307 1346.32 203.354 1346 203.408C1340.05 204.383 1334.67 207.74 1331 212.354C1330.8 212.611 1330.6 212.866 1330.4 213.132C1330.27 213.309 1330.07 213.425 1329.85 213.45C1329.63 213.475 1329.4 213.407 1329.23 213.265C1329.05 213.123 1328.93 212.919 1328.91 212.7C1328.88 212.48 1328.95 212.263 1329.09 212.094C1329.32 211.825 1329.55 211.567 1329.78 211.308C1333.95 206.654 1339.79 203.509 1345.93 202.875C1346.26 202.84 1346.61 202.813 1346.95 202.795Z" fill="#10896C"/>
<path d="M114.847 232.618C46.4508 231.637 0.654688 232.539 -28.7218 232.539C-40.4423 233.923 -61.8863 227.158 -73.4172 229.093L-61.3051 120.236C-52.3909 125.391 -48.4769 132.878 -48.4769 132.878C-42.4375 111.207 -24.4704 100.861 -8.68276 110.877C1.07275 117.058 20.7158 139.9 23.6432 162.33C42.2422 159.087 66.6643 159.67 64.9535 189.245C79.8849 184.572 87.6883 181.663 92.1485 185.957C96.9795 190.61 81.888 200.851 74.9389 204.225C90.7098 201.779 91.8425 204.829 91.2159 210.364C90.5893 215.899 88.2713 220.424 99.0626 220.054C106.843 219.798 114.795 223.958 114.855 232.628L114.847 232.618Z" fill="#076D55"/>
<path d="M90.2316 210.229C90.3866 208.859 90.4107 207.789 90.1955 206.954C89.9978 206.187 89.5965 205.607 88.7765 205.175C87.8952 204.709 86.4808 204.391 84.229 204.363C81.9929 204.336 79.0257 204.594 75.1079 205.202C74.6219 205.277 74.1494 204.983 73.9971 204.511C73.8449 204.038 74.0587 203.53 74.4999 203.316C77.9081 201.661 83.3415 198.304 87.3027 194.808C89.2944 193.05 90.8323 191.327 91.5909 189.829C91.967 189.086 92.1164 188.466 92.0917 187.966C92.0716 187.557 91.9341 187.178 91.6165 186.817L91.4688 186.663C89.5996 184.864 86.9569 184.453 82.6679 185.212C78.3739 185.972 72.7779 187.838 65.2658 190.189C64.9532 190.287 64.61 190.222 64.3497 190.017C64.0896 189.812 63.9457 189.493 63.9648 189.164C64.3847 181.903 63.1942 176.528 60.9751 172.579C58.7629 168.643 55.4794 166.038 51.5462 164.393C43.612 161.074 33.1026 161.688 23.8304 163.305C23.5619 163.352 23.2842 163.285 23.063 163.121C22.8418 162.957 22.6965 162.71 22.6609 162.437C21.2262 151.444 15.679 140.282 9.23342 131.067C2.98292 122.131 -4.0248 115.151 -8.75157 112.002L-9.20193 111.709C-16.7776 106.903 -24.8257 106.988 -31.7373 110.859C-38.6823 114.748 -44.5489 122.508 -47.5147 133.149C-47.624 133.542 -47.9618 133.824 -48.3668 133.862C-48.7717 133.9 -49.1621 133.686 -49.3523 133.323L-49.3532 133.322C-49.3543 133.319 -49.3559 133.315 -49.3587 133.31C-49.3647 133.299 -49.3745 133.281 -49.388 133.256C-49.4153 133.206 -49.4585 133.13 -49.5167 133.03C-49.6333 132.829 -49.8128 132.53 -50.0563 132.154C-50.5435 131.401 -51.2873 130.337 -52.3045 129.114C-54.3403 126.666 -57.4593 123.594 -61.7891 121.09C-62.2677 120.813 -62.4374 120.202 -62.1682 119.725C-61.8988 119.249 -61.2921 119.087 -60.8134 119.364C-56.2292 122.015 -52.9341 125.264 -50.7844 127.848C-49.955 128.845 -49.2951 129.746 -48.7954 130.478C-45.5563 120.506 -39.735 113.038 -32.7257 109.113C-25.1976 104.897 -16.3688 104.817 -8.1573 110.025L-8.15634 110.026C-3.12493 113.213 4.31606 120.585 10.8563 129.935C17.2049 139.011 22.7926 150.076 24.4861 161.168C33.5861 159.668 44.0998 159.125 52.2903 162.551C56.5737 164.343 60.2377 167.227 62.7046 171.616C65.0037 175.707 66.2198 181.03 66.0138 187.852C72.7807 185.723 78.1175 183.986 82.2959 183.246C86.7558 182.457 90.2448 182.738 92.8356 185.232L92.8366 185.232C93.621 185.988 94.0288 186.898 94.078 187.895C94.1255 188.858 93.835 189.828 93.3673 190.752C92.4378 192.588 90.6737 194.509 88.6278 196.315C86.0398 198.599 82.8684 200.811 79.9907 202.566C81.6004 202.417 83.0041 202.352 84.2261 202.367C86.6023 202.396 88.3888 202.728 89.6837 203.411C91.0397 204.127 91.79 205.194 92.1213 206.479C92.4352 207.697 92.3661 209.083 92.2078 210.481C92.1268 211.196 92.0193 211.892 91.9173 212.543C91.814 213.202 91.7176 213.809 91.652 214.383C91.5181 215.554 91.537 216.418 91.7878 217.063C92.0083 217.629 92.4565 218.147 93.5209 218.525C94.6355 218.921 96.3666 219.138 99.019 219.047L99.0199 219.047C103.08 218.914 107.239 219.928 110.421 222.17C113.636 224.436 115.821 227.941 115.853 232.626C115.857 233.177 115.415 233.621 114.865 233.617C114.316 233.614 113.868 233.163 113.864 232.612C113.836 228.628 112.015 225.716 109.294 223.798C106.54 221.858 102.832 220.92 99.1124 221.042L99.1116 221.041C96.3701 221.135 94.3454 220.926 92.8796 220.405C91.3634 219.866 90.4062 218.976 89.9355 217.766C89.4952 216.634 89.5364 215.351 89.676 214.129C89.7473 213.506 89.8503 212.853 89.9516 212.207C90.0541 211.553 90.156 210.897 90.2316 210.229Z" fill="#014737"/>
<path d="M-31.6322 113.192C-31.5645 113.214 -31.5074 113.263 -31.4744 113.326C-30.5236 115.163 -29.5811 117.05 -28.664 118.943C-12.6705 153.072 -0.753516 189.158 5.8239 226.278C6.16145 228.348 6.47263 230.437 6.74418 232.489C6.77315 232.708 6.71412 232.929 6.57936 233.103C6.44444 233.276 6.24434 233.388 6.02439 233.413C5.80441 233.438 5.58213 233.376 5.40742 233.238C5.23279 233.1 5.11955 232.899 5.09236 232.679C4.84179 230.644 4.55175 228.568 4.23508 226.511C-1.96659 189.565 -13.5459 153.378 -29.1986 119.195C-30.0966 117.299 -31.0204 115.409 -31.952 113.569C-31.9843 113.505 -31.9906 113.43 -31.9689 113.363C-31.9472 113.295 -31.8993 113.239 -31.8364 113.207C-31.7735 113.175 -31.6999 113.17 -31.6322 113.192Z" fill="#118B6E"/>
<path d="M37.8352 169.22C37.9618 169.185 38.0977 169.201 38.2133 169.265C38.3289 169.33 38.4158 169.438 38.4535 169.566C38.4911 169.693 38.4768 169.83 38.4144 169.945C37.9202 170.86 37.4554 171.811 37.0261 172.773C29.8425 190.33 29.5815 210.776 35.285 228.911C35.6308 229.911 36.0092 230.907 36.4134 231.869C36.4994 232.074 36.5007 232.304 36.4168 232.507C36.3329 232.711 36.1707 232.872 35.9661 232.955C35.7613 233.038 35.5302 233.036 35.3261 232.949C35.122 232.862 34.9606 232.697 34.8767 232.491C34.4678 231.488 34.0874 230.455 33.7416 229.42C28.0929 210.709 28.5862 190.198 36.0852 172.334C36.5345 171.355 37.0206 170.386 37.5375 169.454C37.601 169.339 37.7086 169.255 37.8352 169.22Z" fill="#118B6E"/>
<path d="M1375.65 177.781C1375.71 177.776 1375.77 177.794 1375.81 177.832C1375.86 177.87 1375.89 177.925 1375.9 177.985C1375.98 178.806 1376.01 179.645 1376.01 180.483C1375.46 195.431 1371.95 210.153 1366.5 224.111C1366.18 224.879 1365.86 225.657 1365.52 226.416C1365.44 226.619 1365.27 226.776 1365.06 226.855C1364.86 226.933 1364.62 226.925 1364.42 226.833C1364.22 226.741 1364.06 226.572 1363.98 226.366C1363.9 226.159 1363.91 225.93 1364 225.73C1364.35 224.993 1364.69 224.237 1365.01 223.489C1370.72 209.886 1374.59 195.26 1375.49 180.478C1375.51 179.651 1375.5 178.826 1375.44 178.025C1375.44 177.966 1375.46 177.907 1375.5 177.861C1375.53 177.815 1375.59 177.787 1375.65 177.781Z" fill="#118B6E"/>
<path d="M-67.5559 171.284C-66.3157 171.477 -65.0873 171.687 -63.8528 171.914C-41.72 176.082 -20.3722 185.251 -2.33328 199.097C-1.33075 199.879 -0.346089 200.675 0.615052 201.482C0.785387 201.625 0.892937 201.83 0.913294 202.051C0.933537 202.272 0.864962 202.491 0.7235 202.66C0.58187 202.829 0.378583 202.935 0.158773 202.952C-0.0610612 202.969 -0.279301 202.897 -0.448553 202.752C-1.38662 201.951 -2.34889 201.161 -3.32984 200.383C-20.9983 186.584 -42.1171 177.285 -64.0375 172.974C-65.2605 172.737 -66.4774 172.52 -67.7064 172.318C-67.8427 172.295 -67.9658 172.219 -68.0481 172.107C-68.1303 171.995 -68.1655 171.855 -68.1456 171.718C-68.1257 171.582 -68.0523 171.46 -67.942 171.378C-67.8315 171.297 -67.6923 171.262 -67.5559 171.284Z" fill="#118B6E"/>
<path d="M-1.54969 138.445C-1.13828 136.508 -2.29023 134.662 -4.01206 134.25C-5.73375 133.839 -7.5198 134.982 -7.93116 136.918C-8.34242 138.855 -7.19127 140.701 -5.46974 141.113C-3.74794 141.525 -1.96115 140.382 -1.54969 138.445ZM0.072513 138.833C-0.51256 141.587 -3.1177 143.389 -5.8161 142.743C-8.51421 142.098 -10.1382 139.284 -9.55336 136.53C-8.96839 133.776 -6.3638 131.973 -3.6655 132.619C-0.967036 133.264 0.657513 136.079 0.072513 138.833Z" fill="#118B6E"/>
<path d="M1431.37 226.607C1431.83 226.605 1432.2 226.978 1432.2 227.438C1432.2 227.898 1431.83 228.273 1431.37 228.275L-34.5618 233.688H-34.5647C-39.1472 233.688 -49.3901 232.796 -53.9133 232.353C-54.3716 232.308 -54.7071 231.9 -54.6624 231.442C-54.6175 230.984 -54.2094 230.648 -53.7512 230.693C-49.2081 231.137 -39.0515 232.019 -34.5657 232.019L1431.37 226.607Z" fill="#032B58"/>
<path d="M3.85522 254.785C3.93777 254.332 4.37194 254.032 4.82495 254.114C55.8742 263.416 119.991 270.329 169.257 270.329C230.046 270.329 270.833 264.283 301.082 257.589C301.531 257.489 301.977 257.773 302.077 258.223C302.176 258.672 301.892 259.117 301.442 259.217C271.074 265.937 230.166 271.996 169.257 271.996C119.868 271.996 55.649 265.07 4.52612 255.755C4.07311 255.672 3.77271 255.238 3.85522 254.785Z" fill="#124C8D"/>
<path d="M349.061 248.206C355.519 247.752 360.291 248.273 363.523 249.55C366.789 250.84 368.586 252.961 368.768 255.662C368.944 258.266 367.593 261.155 365.218 264C361.728 268.182 359.785 273.603 361.401 278.079C362.992 282.486 368.221 286.44 380.155 287.304C380.614 287.337 380.96 287.736 380.926 288.195C380.893 288.655 380.493 289 380.034 288.967C367.872 288.087 361.764 283.994 359.833 278.646C357.926 273.366 360.273 267.324 363.937 262.932L364.348 262.425C366.33 259.908 367.23 257.622 367.105 255.774C366.978 253.901 365.773 252.232 362.91 251.101C360.014 249.957 355.531 249.424 349.177 249.87C342.84 250.315 334.708 251.728 324.56 254.414L324.561 254.415C321.063 255.345 317.406 256.285 313.575 257.232C313.128 257.343 312.676 257.07 312.565 256.623C312.455 256.176 312.728 255.724 313.175 255.613C316.997 254.668 320.645 253.731 324.134 252.803H324.135C334.347 250.1 342.587 248.661 349.061 248.206Z" fill="#124C8D"/>
<path d="M492.885 267.446C535.512 264.862 614.079 263.24 648.524 265.509C665.711 266.636 681.663 267.849 692.865 269.836C698.451 270.827 702.947 272.025 705.833 273.548C707.273 274.308 708.407 275.197 709.037 276.269C709.699 277.393 709.755 278.635 709.2 279.911C708.275 282.041 706.948 284.316 705.865 286.434C704.754 288.608 703.869 290.668 703.648 292.576C703.435 294.429 703.846 296.132 705.367 297.688C706.932 299.29 709.729 300.796 714.427 302.034C728.049 305.622 758.763 307.954 783.375 303.911C783.829 303.837 784.258 304.144 784.333 304.599C784.408 305.053 784.1 305.482 783.646 305.557C758.814 309.636 727.862 307.298 714.002 303.647V303.646C709.186 302.377 706.047 300.771 704.174 298.854C702.257 296.893 701.729 294.669 701.992 292.385C702.249 290.155 703.26 287.865 704.38 285.674C705.529 283.426 706.77 281.319 707.671 279.246L707.733 279.093C708.02 278.338 707.948 277.707 707.6 277.114C707.197 276.429 706.378 275.721 705.055 275.022C702.414 273.629 698.138 272.464 692.574 271.478C681.479 269.509 665.622 268.302 648.415 267.173C614.073 264.911 535.588 266.528 492.985 269.111C471.775 270.398 455.464 274.735 439.937 279.064C424.414 283.393 409.637 287.726 391.61 288.923C391.151 288.953 390.753 288.605 390.723 288.146C390.692 287.686 391.04 287.29 391.499 287.259C409.325 286.075 423.935 281.795 439.488 277.458C455.036 273.123 471.489 268.744 492.885 267.446Z" fill="#124C8D"/>
<path d="M822.257 289.676C822.672 289.478 823.171 289.655 823.369 290.07C823.567 290.486 823.39 290.984 822.974 291.182C816.157 294.43 809.238 298.382 798.854 301.907H798.852C796.651 302.65 794.335 303.312 791.93 303.9C791.483 304.01 791.032 303.736 790.923 303.289C790.813 302.842 791.087 302.391 791.534 302.281C793.899 301.702 796.169 301.053 798.319 300.327C808.579 296.844 815.333 292.975 822.257 289.676Z" fill="#124C8D"/>
<path d="M834.813 284.846C841.955 282.897 850.641 281.93 863.198 282.615L864.426 282.686L866.023 282.79C882.745 283.947 906.063 287.351 931.45 290.16C957.698 293.063 986.224 295.34 1012.24 293.897C1012.7 293.871 1013.1 294.223 1013.12 294.683C1013.15 295.143 1012.79 295.536 1012.33 295.562C986.174 297.013 957.535 294.722 931.266 291.817C904.957 288.907 881.09 285.388 864.322 284.35V284.349C851.231 283.539 842.405 284.504 835.253 286.456C834.809 286.577 834.35 286.315 834.228 285.871C834.107 285.426 834.369 284.967 834.813 284.846Z" fill="#124C8D"/>
<path d="M1023.48 293.011C1048.67 290.417 1075.43 291.07 1101.17 291.902C1126.94 292.734 1151.67 293.743 1172.89 291.886C1173.35 291.846 1173.76 292.185 1173.8 292.644C1173.84 293.103 1173.5 293.507 1173.04 293.547C1151.69 295.415 1126.84 294.399 1101.12 293.568C1075.37 292.736 1048.72 292.089 1023.65 294.67C1023.2 294.717 1022.79 294.384 1022.74 293.926C1022.69 293.468 1023.03 293.058 1023.48 293.011Z" fill="#124C8D"/>
<path d="M1275.87 273.465C1288.08 272.767 1295.47 272.889 1300.45 274.479C1302.97 275.286 1304.88 276.472 1306.49 278.112C1308.08 279.738 1309.34 281.781 1310.6 284.251C1311.8 286.587 1314.4 288.405 1318.2 289.611C1321.99 290.813 1326.85 291.366 1332.35 291.266C1332.81 291.257 1333.19 291.625 1333.2 292.085C1333.21 292.545 1332.84 292.925 1332.38 292.934C1326.77 293.036 1321.72 292.475 1317.7 291.201C1313.7 289.932 1310.61 287.914 1309.12 285.012V285.011C1307.88 282.593 1306.71 280.725 1305.3 279.278C1303.89 277.846 1302.22 276.797 1299.94 276.067C1295.31 274.586 1288.23 274.428 1275.97 275.129H1275.97C1264.95 275.757 1253.74 278.1 1240.7 281.062C1227.66 284.02 1212.81 287.591 1194.55 290.64C1194.1 290.715 1193.67 290.408 1193.59 289.954C1193.52 289.5 1193.82 289.07 1194.28 288.994C1212.47 285.955 1227.27 282.399 1240.33 279.436C1253.37 276.475 1264.7 274.102 1275.87 273.465Z" fill="#124C8D"/>
<path d="M1419.79 258.327C1432.66 254.486 1450.64 253.041 1471 254.821C1471.46 254.862 1471.8 255.266 1471.76 255.725C1471.72 256.183 1471.31 256.522 1470.86 256.482C1449.97 254.657 1431.73 256.26 1419.06 260.295C1408.63 263.614 1400.93 267.972 1392.88 272.612C1384.82 277.253 1376.41 282.173 1364.63 286.527V286.526C1358.32 288.863 1351.81 290.575 1345.58 291.637C1345.12 291.714 1344.69 291.409 1344.61 290.955C1344.54 290.501 1344.84 290.07 1345.3 289.993C1351.43 288.949 1357.84 287.263 1364.05 284.963H1364.05C1375.69 280.663 1383.98 275.81 1392.04 271.167C1400.11 266.523 1407.94 262.085 1418.56 258.706L1419.79 258.327Z" fill="#124C8D"/>
<path d="M1089.8 299.507C1089.96 299.521 1090.12 299.535 1090.28 299.55C1093.17 299.806 1096.06 300.06 1098.95 300.255C1099.11 300.266 1099.27 300.276 1099.43 300.286C1099.54 300.293 1099.64 300.343 1099.71 300.423C1099.78 300.503 1099.82 300.605 1099.82 300.711C1099.82 300.817 1099.78 300.918 1099.7 300.994C1099.62 301.07 1099.52 301.117 1099.41 301.119C1099.25 301.123 1099.09 301.126 1098.93 301.129C1096.02 301.184 1093.11 301.18 1090.21 301.174C1090.04 301.173 1089.88 301.173 1089.72 301.173C1089.5 301.172 1089.29 301.083 1089.14 300.92C1088.99 300.757 1088.92 300.532 1088.93 300.302C1088.94 300.071 1089.03 299.855 1089.2 299.706C1089.36 299.557 1089.58 299.487 1089.8 299.507Z" fill="#124C8D"/>
<path d="M1051.55 299.396C1060.01 298.718 1068.49 298.748 1076.94 298.987C1078.34 299.027 1079.74 299.074 1081.14 299.125C1081.36 299.133 1081.56 299.229 1081.71 299.391C1081.86 299.554 1081.94 299.77 1081.93 299.992C1081.93 300.214 1081.83 300.423 1081.67 300.573C1081.5 300.723 1081.29 300.8 1081.07 300.791C1079.67 300.728 1078.28 300.671 1076.88 300.62C1068.47 300.313 1060.04 300.216 1051.66 300.82C1035.05 302.114 1018.35 304.84 1001.57 304.13C1000.17 304.101 998.794 304.064 997.366 304.017C997.236 304.013 997.112 303.956 997.023 303.861C996.934 303.766 996.886 303.639 996.889 303.509C996.893 303.379 996.949 303.256 997.044 303.166C997.138 303.077 997.265 303.027 997.395 303.031C998.819 303.067 1000.19 303.093 1001.59 303.111C1018.33 303.68 1034.81 300.839 1051.55 299.396Z" fill="#124C8D"/>
<path d="M736.242 314.223C736.504 314.252 736.762 314.28 737.024 314.309C741.716 314.815 746.427 315.19 751.147 315.379C751.41 315.389 751.672 315.399 751.933 315.408C752.04 315.412 752.143 315.46 752.218 315.538C752.293 315.617 752.334 315.72 752.333 315.827C752.333 315.934 752.29 316.037 752.213 316.114C752.137 316.191 752.033 316.236 751.926 316.238C751.664 316.243 751.4 316.247 751.135 316.251C746.387 316.313 741.637 316.187 736.892 315.929C736.627 315.914 736.366 315.9 736.101 315.885C735.88 315.872 735.676 315.771 735.534 315.603C735.391 315.434 735.321 315.21 735.34 314.983C735.359 314.757 735.465 314.548 735.634 314.405C735.803 314.263 736.022 314.198 736.242 314.223Z" fill="#124C8D"/>
<path d="M695.576 289.214C695.715 289.254 695.834 289.347 695.905 289.473C695.977 289.599 695.995 289.749 695.957 289.888C695.751 290.64 695.574 291.392 695.431 292.154C694.273 297.347 695.779 303.059 700.153 306.132C704.385 309.297 709.743 310.666 715.034 311.572C718.322 312.112 721.62 312.592 724.926 313.006C725.707 313.104 726.49 313.199 727.272 313.29C727.492 313.315 727.692 313.427 727.828 313.601C727.964 313.775 728.026 313.997 727.999 314.218C727.972 314.439 727.859 314.64 727.685 314.776C727.51 314.912 727.29 314.973 727.07 314.945C726.284 314.844 725.497 314.739 724.712 314.631C721.39 314.174 718.079 313.652 714.777 313.069C709.379 312.069 703.873 310.636 699.344 307.177C694.614 303.819 693.011 297.296 694.324 291.94C694.483 291.145 694.678 290.367 694.9 289.591C694.94 289.452 695.034 289.334 695.161 289.263C695.288 289.193 695.437 289.175 695.576 289.214Z" fill="#124C8D"/>
<path d="M1419.47 306.872C1419.36 306.829 1419.24 306.831 1419.13 306.878C1419.02 306.926 1418.94 307.015 1418.89 307.125C1418.85 307.236 1418.85 307.361 1418.9 307.47C1419.58 309.069 1419.96 310.805 1420.06 312.555C1420.77 323.779 1410.4 332.165 1400.06 334.501C1379.28 339.053 1357.49 339.36 1336.36 336.923C1334.58 336.695 1332.8 336.434 1331.05 336.139C1330.83 336.102 1330.61 336.155 1330.43 336.284C1330.25 336.412 1330.12 336.608 1330.09 336.827C1330.05 337.045 1330.1 337.27 1330.23 337.45C1330.36 337.629 1330.56 337.75 1330.78 337.785C1332.56 338.071 1334.36 338.323 1336.16 338.54C1357.55 340.843 1379.31 340.397 1400.36 335.636C1410.93 333.187 1421.84 324.355 1421 312.497C1420.88 310.648 1420.47 308.813 1419.72 307.111C1419.68 307.002 1419.59 306.916 1419.47 306.872Z" fill="#124C8D"/>
<path d="M1292.17 321.904C1291.75 321.705 1291.25 321.882 1291.05 322.298C1290.85 322.714 1291.03 323.211 1291.45 323.409C1298.26 326.658 1305.18 330.61 1315.57 334.135H1315.57C1317.77 334.878 1320.09 335.539 1322.49 336.128C1322.94 336.238 1323.39 335.964 1323.5 335.517C1323.61 335.07 1323.33 334.619 1322.89 334.509C1320.52 333.93 1318.25 333.281 1316.1 332.555C1305.84 329.072 1299.09 325.203 1292.17 321.904Z" fill="#124C8D"/>
<path d="M1270.77 315.344C1263.86 314.471 1256.9 314.538 1250 314.97C1203.58 318.989 1157.62 327.821 1111.04 326.8C1108.08 326.733 1105.11 326.624 1102.16 326.467C1102.03 326.46 1101.9 326.505 1101.81 326.592C1101.71 326.678 1101.65 326.8 1101.64 326.929C1101.64 327.059 1101.68 327.187 1101.77 327.284C1101.85 327.381 1101.98 327.441 1102.11 327.448C1105.06 327.618 1108.04 327.738 1111.01 327.816C1157.72 329.019 1203.87 320.34 1250.1 316.521C1256.94 316.118 1263.8 316.084 1270.56 316.964C1273.47 317.344 1276.35 317.907 1279.17 318.683C1279.38 318.742 1279.61 318.713 1279.8 318.603C1279.99 318.494 1280.14 318.312 1280.19 318.098C1280.25 317.885 1280.22 317.657 1280.11 317.465C1280 317.273 1279.82 317.132 1279.61 317.074C1276.71 316.286 1273.74 315.721 1270.77 315.344Z" fill="#124C8D"/>
<path d="M1419.4 321.24C1419.21 321.132 1418.98 321.105 1418.77 321.165C1418.55 321.225 1418.37 321.368 1418.26 321.561C1418.15 321.753 1418.13 321.981 1418.19 322.193C1418.41 322.936 1418.59 323.678 1418.74 324.431C1419.95 329.555 1418.57 335.195 1414.25 338.335C1410.07 341.555 1404.71 343.008 1399.42 343.987C1396.14 344.573 1392.84 345.097 1389.54 345.557C1388.76 345.665 1387.98 345.771 1387.19 345.872C1387.07 345.888 1386.96 345.953 1386.88 346.053C1386.8 346.152 1386.77 346.278 1386.78 346.402C1386.8 346.527 1386.86 346.641 1386.96 346.719C1387.06 346.797 1387.18 346.833 1387.31 346.818C1388.1 346.728 1388.88 346.635 1389.67 346.537C1392.99 346.125 1396.31 345.649 1399.61 345.11C1405.01 344.184 1410.52 342.833 1415.1 339.43C1419.88 336.138 1421.61 329.544 1420.35 324.119C1420.2 323.315 1420.01 322.527 1419.8 321.742C1419.74 321.529 1419.6 321.349 1419.4 321.24Z" fill="#124C8D"/>
<path d="M349.743 256.671C350.997 256.636 352.286 256.65 353.551 257.031C353.653 257.063 353.738 257.134 353.788 257.229C353.837 257.323 353.847 257.433 353.816 257.535C353.784 257.637 353.714 257.722 353.62 257.772C353.525 257.823 353.415 257.834 353.313 257.803C352.223 257.484 350.982 257.471 349.777 257.521C339.614 258.433 329.752 261.876 319.843 264.601C308.295 267.816 296.583 270.244 284.839 272.508C283.622 272.739 282.407 272.967 281.189 273.191C280.971 273.231 280.747 273.183 280.566 273.057C280.385 272.93 280.26 272.736 280.221 272.517C280.182 272.298 280.232 272.073 280.358 271.892C280.484 271.71 280.678 271.587 280.896 271.55C282.113 271.34 283.328 271.127 284.544 270.91C296.279 268.789 308.013 266.496 319.518 263.436C329.469 260.829 339.311 257.49 349.743 256.671Z" fill="#124C8D"/>
<path d="M270.915 273.234C271.369 273.161 271.797 273.47 271.871 273.925C271.944 274.379 271.634 274.808 271.179 274.881C267.871 275.413 264.606 275.901 261.432 276.344H261.431C245.655 278.534 223.949 280.137 207.172 281.172C206.713 281.2 206.317 280.851 206.289 280.392C206.26 279.932 206.609 279.536 207.069 279.508C223.844 278.473 245.494 276.872 261.202 274.691L263.59 274.352C265.994 274.005 268.443 273.632 270.915 273.234Z" fill="#124C8D"/>
<path d="M199.696 279.949C199.916 279.92 200.132 279.982 200.297 280.129C200.461 280.277 200.562 280.498 200.575 280.735C200.588 280.972 200.513 281.202 200.366 281.367C200.219 281.532 200.01 281.617 199.789 281.613C199.658 281.611 199.528 281.609 199.397 281.607C197.051 281.569 194.705 281.528 192.36 281.486C192.23 281.484 192.099 281.48 191.969 281.478C191.902 281.477 191.835 281.447 191.785 281.399C191.735 281.35 191.705 281.287 191.701 281.219C191.697 281.152 191.721 281.086 191.765 281.032C191.81 280.978 191.873 280.942 191.94 280.933C192.069 280.917 192.199 280.901 192.328 280.884C194.655 280.591 196.982 280.295 199.308 279.998C199.438 279.981 199.566 279.965 199.696 279.949Z" fill="#124C8D"/>
<path d="M1405.48 467.697C1405.48 496.896 1332.97 520.575 1243.51 520.575C1195.81 520.575 1152.89 513.841 1123.26 503.117L1148.62 488.959L1087.31 481.704C1083.55 477.244 1081.54 472.546 1081.54 467.697C1081.54 438.488 1154.07 414.81 1243.51 414.81C1332.96 414.81 1405.48 438.488 1405.48 467.697Z" fill="#076D55"/>
<path d="M1404.98 467.697C1404.98 460.618 1400.58 453.791 1392.44 447.506C1384.31 441.227 1372.51 435.552 1357.88 430.776C1328.64 421.226 1288.2 415.31 1243.51 415.31C1198.83 415.31 1158.39 421.226 1129.14 430.776C1114.51 435.552 1102.71 441.227 1094.58 447.506C1086.44 453.791 1082.04 460.618 1082.04 467.697C1082.04 472.345 1083.95 476.882 1087.57 481.231L1150.21 488.644L1124.46 503.016C1153.99 513.499 1196.4 520.075 1243.51 520.075C1288.21 520.075 1328.64 514.159 1357.89 504.61C1372.51 499.834 1384.31 494.159 1392.45 487.881C1400.58 481.598 1404.98 474.773 1404.98 467.697ZM1405.98 467.697C1405.98 475.22 1401.31 482.304 1393.06 488.673C1384.8 495.048 1372.88 500.767 1358.2 505.561C1328.83 515.151 1288.28 521.075 1243.51 521.075C1195.77 521.075 1152.79 514.337 1123.09 503.587L1122.06 503.214L1147.03 489.274L1087.25 482.201L1087.06 482.177L1086.93 482.026C1083.12 477.501 1081.04 472.693 1081.04 467.697C1081.04 460.171 1085.71 453.086 1093.97 446.715C1102.23 440.34 1114.15 434.619 1128.83 429.825C1158.2 420.234 1198.75 414.31 1243.51 414.31C1288.28 414.31 1328.82 420.234 1358.2 429.825C1372.88 434.619 1384.8 440.34 1393.06 446.715C1401.31 453.086 1405.98 460.171 1405.98 467.697Z" fill="#014737"/>
<path d="M1177.27 471.678C1181.43 512.132 1219.76 536.589 1262.24 536.589C1304.74 536.589 1333.34 494.551 1338.5 469.908C1338.5 469.908 1323.58 469.704 1314.24 474.553C1316.74 461.378 1315.18 448.256 1308.99 442.106C1302.07 444.31 1291.19 460.927 1282.45 478.066C1292.69 456.91 1288.13 433.196 1284.48 423.649C1279.37 426.162 1269.04 437.417 1260.62 455.919C1252.33 438.824 1239.45 429.48 1231.26 423.852C1220.54 436.709 1224.92 483.278 1227.69 495.073C1211.8 460.723 1192.35 456.512 1192.35 456.512C1192.35 456.512 1194.14 473.996 1204.26 491.064C1204.26 491.064 1191.36 475.898 1177.27 471.678Z" fill="#C3DAF3"/>
<path d="M1362.49 190.929C1362.61 190.917 1362.74 190.952 1362.83 191.029C1363.33 191.458 1363.59 191.962 1363.85 192.432C1367.43 201.301 1368.21 210.845 1367.4 220.275C1367.34 220.795 1367.28 221.326 1367.2 221.844C1367.17 222.063 1367.05 222.26 1366.87 222.39C1366.69 222.519 1366.47 222.573 1366.25 222.538C1366.03 222.503 1365.83 222.383 1365.7 222.204C1365.57 222.025 1365.52 221.802 1365.55 221.584C1365.64 221.089 1365.72 220.579 1365.78 220.079C1366.8 211.029 1366.2 201.367 1362.98 192.867C1362.78 192.444 1362.51 191.981 1362.24 191.746C1362.14 191.667 1362.09 191.553 1362.07 191.431C1362.06 191.309 1362.1 191.188 1362.18 191.094C1362.26 191 1362.37 190.941 1362.49 190.929Z" fill="#10896C"/>
<g clip-path="url(#clip2_12086_50)">
<path opacity="0.5" d="M480.851 414.611C481.182 414.293 481.708 414.303 482.026 414.634C482.344 414.964 482.333 415.49 482.003 415.808C480.323 417.423 479.739 419.049 479.883 420.627C480.03 422.245 480.956 423.968 482.619 425.705C485.948 429.182 491.957 432.426 499.018 434.631C513.157 439.047 534.04 441.871 558.08 442.085C558.538 442.089 558.907 442.464 558.903 442.923C558.899 443.381 558.524 443.75 558.065 443.746C534.684 443.538 514.19 440.873 499.887 436.632L498.523 436.217C491.333 433.972 485.022 430.617 481.419 426.853C479.615 424.969 478.422 422.911 478.228 420.777C478.03 418.602 478.883 416.504 480.851 414.611Z" fill="#AABFD3"/>
<path opacity="0.5" d="M465.736 419.626C466.193 419.672 466.526 420.079 466.48 420.535C465.883 426.521 468.843 431.827 475.339 434.769C475.756 434.958 475.942 435.451 475.753 435.868C475.563 436.286 475.071 436.472 474.653 436.282C467.562 433.07 464.153 427.121 464.827 420.369C464.873 419.913 465.28 419.581 465.736 419.626Z" fill="#AABFD3"/>
<path d="M706.42 422.411C686.175 427.434 664.114 429.578 643.656 430.775C636.066 431.219 628.22 431.474 620.317 431.474C600.616 431.474 547.108 427.715 517.636 420.473C511.099 418.867 506.191 417.221 502.611 415.3C482.882 404.716 499.329 394.5 509.946 389.886C525.44 383.151 544.001 377.772 584.462 372.443C624.923 367.114 669.183 371.383 692.514 374.689C715.836 378.003 723.739 386.103 707.423 390.133C693.205 393.644 680.121 397.715 692.349 400.462C703.147 402.88 721.799 404.927 724.915 409.023C728.863 414.204 720.96 418.809 706.42 422.403V422.411Z" fill="#076D55"/>
<path d="M510.619 417.606C510.756 417.169 511.223 416.925 511.661 417.062C525.162 421.299 547.208 424.742 571.419 426.915C595.615 429.087 621.908 429.984 643.879 429.149C644.337 429.132 644.722 429.49 644.74 429.948C644.757 430.407 644.4 430.793 643.941 430.811C621.888 431.648 595.523 430.747 571.27 428.57C547.033 426.395 524.841 422.94 511.163 418.648C510.725 418.511 510.482 418.044 510.619 417.606Z" fill="#0F273D"/>
<path d="M584.349 371.643C620.346 367.111 656.811 369.03 692.623 373.883C698.845 374.806 705.087 376 710.936 378.636C712.39 379.326 713.821 380.101 715.1 381.267C715.72 381.849 716.323 382.538 716.661 383.484C717.018 384.419 716.85 385.623 716.316 386.431C713.98 389.468 710.672 390.059 707.615 390.94C703.161 392.049 698.712 393.188 694.415 394.66C692.314 395.418 689.994 396.221 688.589 397.486C688.432 397.645 688.343 397.796 688.326 397.864C688.316 397.933 688.302 397.897 688.358 398C688.487 398.207 688.921 398.492 689.386 398.7C690.325 399.123 691.413 399.412 692.523 399.664C703.437 402.468 715.129 401.768 725.567 408.529C726.308 409.487 726.892 410.788 726.719 412.162C726.553 413.532 725.77 414.624 724.942 415.463C723.231 417.143 721.217 418.178 719.187 419.116C715.118 420.934 710.88 422.146 706.613 423.214C698.425 425.199 690.135 426.57 681.831 427.781C677.784 428.363 673.727 428.885 669.667 429.354C669.615 429.36 669.468 429.355 669.416 429.345C666.992 428.882 664.569 428.418 662.145 427.955C661.929 427.914 661.738 427.788 661.614 427.605C661.49 427.423 661.445 427.2 661.486 426.983C661.527 426.767 661.653 426.576 661.835 426.452C662.017 426.328 662.241 426.282 662.458 426.323C664.838 426.778 667.219 427.234 669.599 427.689C673.604 427.227 677.605 426.713 681.595 426.14C689.861 424.936 698.135 423.566 706.216 421.606C710.426 420.555 714.605 419.352 718.505 417.608C722.102 416.03 727.135 412.842 724.251 409.531C715.572 404 703.003 403.929 692.162 401.274C690.991 401.005 689.849 400.715 688.699 400.2C688.115 399.91 687.53 399.666 686.979 398.905C686.707 398.525 686.581 397.886 686.743 397.4C686.817 397.153 686.915 396.969 687.041 396.781C687.147 396.623 687.274 396.473 687.407 396.336C689.473 394.529 691.668 393.935 693.875 393.103C698.278 391.595 702.744 390.456 707.219 389.341C710.125 388.58 713.418 387.632 714.915 385.566C716.254 383.535 712.767 381.287 710.239 380.126C704.7 377.623 698.519 376.413 692.392 375.51C656.71 370.668 620.329 368.759 584.562 373.26C571.292 375.018 558.095 377.015 545.052 379.818C533.141 382.379 521.377 385.674 510.198 390.487C504.786 392.871 499.152 395.56 495.454 400.11C493.422 402.545 493.105 406.079 495.1 408.62C496.958 411.182 499.741 412.993 502.595 414.569C502.679 414.615 502.742 414.692 502.769 414.784C502.797 414.876 502.787 414.975 502.742 415.06C502.697 415.144 502.62 415.206 502.528 415.234C502.436 415.262 502.337 415.253 502.253 415.208C499.332 413.634 496.458 411.855 494.404 409.12C492.151 406.439 492.457 402.115 494.645 399.508C498.551 394.571 504.218 391.821 509.682 389.3C520.877 384.278 532.737 380.803 544.708 378.229C557.823 375.41 571.054 373.406 584.349 371.643Z" fill="#0F273D"/>
<g clip-path="url(#clip3_12086_50)">
<path d="M619.12 372.627C627.419 365.621 641.769 361.471 646.096 361.471C650.422 361.471 641.338 370.894 637.104 373.658C632.869 376.422 627.503 379.886 627.503 379.886C627.503 379.886 641.161 381.441 649.121 386.284C657.074 391.126 642.985 392.166 631.314 390.78C641.777 397.786 640.476 404.352 628.897 401.065C617.318 397.778 610.828 394.321 606.941 390.341C607.803 398.987 604.723 403.352 601.067 404.791C594.623 407.316 591.667 405.438 591.205 401.843C590.496 396.331 593.368 393.282 596.655 390.78C578.933 397.786 564.837 399.687 557.231 399.425C549.625 399.164 563.628 385.676 587.84 386.369C581.705 384.29 580.126 380.402 580.126 380.402C580.126 380.402 564.583 379.886 555.591 370.717C546.599 361.548 553.774 363.419 562.335 364.974C570.896 366.529 586.716 375.383 586.978 375.467C573.729 361.479 568.194 348.853 572.428 344.619C576.662 340.385 584.445 349.546 586.778 353.526C585.308 339.176 585.654 337.621 587.471 337.013C589.288 336.405 595.77 345.574 597.756 353.958C599.919 343.926 601.213 341.855 603.376 341.594C605.539 341.332 608.911 352.656 608.996 359.146C615.571 344.188 619.805 340.3 621.706 340.816C623.608 341.332 622.746 348.253 621.622 352.402C630.352 343.41 632.862 343.41 634.247 344.712C635.633 346.013 626.557 365.983 619.12 372.634V372.627Z" fill="#C3DAF3"/>
<path d="M619.131 372.627C626.568 365.967 635.645 345.997 634.259 344.704C632.873 343.41 630.371 343.41 621.633 352.395C622.757 348.245 623.619 341.332 621.718 340.808C619.816 340.285 615.582 344.18 609.007 359.139C608.923 352.656 605.551 341.332 603.387 341.586C601.224 341.84 599.931 343.919 597.767 353.95C595.781 345.566 589.291 336.397 587.482 337.005C585.673 337.613 585.319 339.169 586.789 353.519C584.457 349.538 576.673 340.377 572.439 344.611C569.075 347.976 571.869 356.621 579.784 367.053C584.303 366.714 588.383 370.633 591.108 373.512C593.402 377.153 596.767 382.204 596.767 382.204C596.767 382.204 596.767 373.935 602.525 370.871C608.284 367.807 612.449 369.994 612.379 372.988C612.31 375.983 611.794 377.223 611.794 377.223C611.794 377.223 615.659 371.657 619.123 372.619L619.131 372.627Z" fill="#ACBFEC"/>
<path d="M609.708 398.883C609.942 398.368 610.494 398.223 610.952 398.555C614.711 401.28 618.997 403.277 623.501 404.627C623.986 404.771 624.474 404.908 624.964 405.037C625.079 405.067 625.18 405.139 625.245 405.24C625.309 405.341 625.331 405.464 625.306 405.58C625.282 405.696 625.212 405.798 625.112 405.864C625.012 405.93 624.89 405.955 624.772 405.935C624.261 405.851 623.751 405.756 623.243 405.65C618.841 404.731 614.553 403.02 610.785 400.466C608.915 404.227 606.302 408.077 602.019 409.453C601.499 409.602 600.964 409.698 600.428 409.731C600.344 409.736 600.259 409.711 600.192 409.658C600.125 409.605 600.082 409.529 600.071 409.445C600.06 409.362 600.083 409.277 600.135 409.209C600.186 409.141 600.262 409.095 600.344 409.079C600.825 408.983 601.291 408.836 601.738 408.647C605.647 406.865 607.875 402.769 609.708 398.883Z" fill="#0F273D"/>
<path d="M583.803 399.984C583.927 399.959 584.056 399.979 584.166 400.043C584.275 400.108 584.355 400.212 584.387 400.333C584.42 400.455 584.404 400.585 584.342 400.696C584.279 400.807 584.176 400.889 584.057 400.929C583.781 401.023 583.497 401.115 583.217 401.202C580.678 401.982 578.084 402.512 575.476 402.9C572.867 403.283 570.234 403.49 567.592 403.493C567.296 403.493 566.999 403.49 566.711 403.483C566.614 403.481 566.52 403.446 566.447 403.38C566.375 403.315 566.33 403.225 566.324 403.129C566.317 403.034 566.349 402.938 566.412 402.864C566.475 402.789 566.565 402.741 566.66 402.726C566.941 402.681 567.231 402.634 567.519 402.587C570.098 402.163 572.674 401.749 575.251 401.371C577.826 400.987 580.401 400.616 582.955 400.147C583.237 400.095 583.525 400.039 583.803 399.984Z" fill="#0F273D"/>
<path d="M613.176 375.193C614.651 373.542 616.774 372.66 618.096 372.326C618.328 372.267 618.467 372.019 618.379 371.797C614.123 361.021 597.069 361.027 584.847 367.436C584.555 367.589 584.583 368.015 584.884 368.15C590.231 370.553 592.804 375.179 596.016 380.641C596.198 380.95 596.671 380.869 596.754 380.52C598.547 372.978 603.63 368.646 607.469 368.893C610.267 369.073 611.96 370.391 612.152 374.871C612.17 375.29 612.896 375.506 613.176 375.193Z" fill="#D69F46"/>
<path d="M594.241 363.666C597.51 362.741 600.959 362.428 604.355 362.741C607.737 363.069 611.157 364.005 613.954 366.024C614.263 366.25 614.561 366.489 614.844 366.741C614.887 366.78 614.914 366.833 614.919 366.891C614.924 366.948 614.906 367.006 614.869 367.05C614.833 367.094 614.78 367.122 614.722 367.128C614.664 367.134 614.607 367.116 614.562 367.081C614.274 366.858 613.973 366.646 613.664 366.447C610.867 364.675 607.565 363.876 604.279 363.556C600.981 363.252 597.625 363.463 594.377 364.196C594.017 364.278 593.656 364.367 593.299 364.463C593.238 364.479 593.173 364.473 593.117 364.442C593.062 364.412 593.019 364.36 593.001 364.3C592.983 364.239 592.99 364.174 593.02 364.118C593.05 364.062 593.1 364.02 593.16 364C593.517 363.881 593.879 363.769 594.241 363.666Z" fill="white"/>
<path d="M612.524 372.34C612.703 372.321 612.881 372.372 613.014 372.48C613.148 372.588 613.228 372.746 613.239 372.917C613.25 373.09 613.258 373.26 613.262 373.432C613.343 376.532 612.415 379.476 611.201 382.167C611.133 382.319 611.066 382.467 611.003 382.614C610.979 382.669 610.933 382.714 610.876 382.738C610.819 382.762 610.756 382.763 610.699 382.742C610.642 382.72 610.596 382.677 610.57 382.621C610.544 382.565 610.54 382.5 610.559 382.443C610.612 382.287 610.665 382.134 610.719 381.977C611.697 379.227 612.322 376.322 612.009 373.518C611.991 373.363 611.971 373.209 611.948 373.054C611.923 372.884 611.967 372.713 612.075 372.58C612.183 372.446 612.346 372.359 612.524 372.34Z" fill="#D69F46"/>
<path d="M581.577 367.137C583.465 366.914 585.471 367.072 587.31 367.971C587.412 368.021 587.512 368.075 587.611 368.13C587.762 368.213 587.871 368.35 587.907 368.519C587.944 368.687 587.906 368.871 587.806 369.026C587.707 369.181 587.554 369.292 587.386 369.328C587.217 369.365 587.047 369.324 586.909 369.221C586.835 369.164 586.758 369.109 586.681 369.056C585.266 368.09 583.427 367.644 581.602 367.609C581.501 367.608 581.399 367.607 581.297 367.608C581.243 367.609 581.19 367.587 581.149 367.55C581.109 367.513 581.083 367.463 581.079 367.41C581.075 367.357 581.092 367.304 581.126 367.261C581.16 367.218 581.209 367.188 581.262 367.18C581.366 367.164 581.472 367.15 581.577 367.137Z" fill="#D69F46"/>
</g>
</g>
</g>
</g>
<defs>
<filter id="filter0_nn_12086_50" x="-56.0354" y="227.72" width="1550.15" height="79.1574" filterUnits="userSpaceOnUse" color-interpolation-filters="sRGB">
<feFlood flood-opacity="0" result="BackgroundImageFix"/>
<feBlend mode="normal" in="SourceGraphic" in2="BackgroundImageFix" result="shape"/>
<feTurbulence type="fractalNoise" baseFrequency="0.52662670612335205 0.52662670612335205" stitchTiles="stitch" numOctaves="3" result="noise" seed="2151" />
<feComponentTransfer in="noise" result="coloredNoise1">
<feFuncR type="linear" slope="2" intercept="-0.5" />
<feFuncG type="linear" slope="2" intercept="-0.5" />
<feFuncB type="linear" slope="2" intercept="-0.5" />
<feFuncA type="discrete" tableValues="1 1 1 1 1 1 1 1 1 1 1 1 1 1 1 1 1 1 1 1 1 1 1 1 1 1 1 1 1 1 1 1 1 1 1 1 1 1 1 1 1 1 1 1 1 1 1 1 1 1 1 0 0 0 0 0 0 0 0 0 0 0 0 0 0 0 0 0 0 0 0 0 0 0 0 0 0 0 0 0 0 0 0 0 0 0 0 0 0 0 0 0 0 0 0 0 0 0 0 0 "/>
</feComponentTransfer>
<feComposite operator="in" in2="shape" in="coloredNoise1" result="noise1Clipped" />
<feComponentTransfer in="noise1Clipped" result="color1">
<feFuncA type="table" tableValues="0 0.1" />
</feComponentTransfer>
<feMerge result="effect1_noise_12086_50">
<feMergeNode in="shape" />
<feMergeNode in="color1" />
</feMerge>
<feTurbulence type="fractalNoise" baseFrequency="0.27129253745079041 0.27129253745079041" stitchTiles="stitch" numOctaves="3" result="noise" seed="3494" />
<feColorMatrix in="noise" type="luminanceToAlpha" result="alphaNoise" />
<feComponentTransfer in="alphaNoise" result="coloredNoise1">
<feFuncA type="discrete" tableValues="0 0 0 0 0 0 0 0 0 0 0 0 0 0 0 0 0 1 1 1 1 1 1 1 1 1 1 1 1 1 1 1 0 0 0 0 0 0 0 0 0 0 0 0 0 0 0 0 0 0 0 0 0 0 0 0 0 0 0 0 0 0 0 0 0 0 0 0 0 0 0 0 0 0 0 0 0 0 0 0 0 0 0 0 0 0 0 0 0 0 0 0 0 0 0 0 0 0 0 0 "/>
</feComponentTransfer>
<feComposite operator="in" in2="effect1_noise_12086_50" in="coloredNoise1" result="noise1Clipped" />
<feFlood flood-color="rgba(255, 255, 255, 0.18)" result="color1Flood" />
<feComposite operator="in" in2="noise1Clipped" in="color1Flood" result="color1" />
<feMerge result="effect2_noise_12086_50">
<feMergeNode in="effect1_noise_12086_50" />
<feMergeNode in="color1" />
</feMerge>
</filter>
<filter id="filter1_nn_12086_50" x="-517.457" y="368" width="1044" height="160" filterUnits="userSpaceOnUse" color-interpolation-filters="sRGB">
<feFlood flood-opacity="0" result="BackgroundImageFix"/>
<feBlend mode="normal" in="SourceGraphic" in2="BackgroundImageFix" result="shape"/>
<feTurbulence type="fractalNoise" baseFrequency="0.52662670612335205 0.52662670612335205" stitchTiles="stitch" numOctaves="3" result="noise" seed="2151" />
<feComponentTransfer in="noise" result="coloredNoise1">
<feFuncR type="linear" slope="2" intercept="-0.5" />
<feFuncG type="linear" slope="2" intercept="-0.5" />
<feFuncB type="linear" slope="2" intercept="-0.5" />
<feFuncA type="discrete" tableValues="1 1 1 1 1 1 1 1 1 1 1 1 1 1 1 1 1 1 1 1 1 1 1 1 1 1 1 1 1 1 1 1 1 1 1 1 1 1 1 1 1 1 1 1 1 1 1 1 1 1 1 0 0 0 0 0 0 0 0 0 0 0 0 0 0 0 0 0 0 0 0 0 0 0 0 0 0 0 0 0 0 0 0 0 0 0 0 0 0 0 0 0 0 0 0 0 0 0 0 0 "/>
</feComponentTransfer>
<feComposite operator="in" in2="shape" in="coloredNoise1" result="noise1Clipped" />
<feComponentTransfer in="noise1Clipped" result="color1">
<feFuncA type="table" tableValues="0 0.1" />
</feComponentTransfer>
<feMerge result="effect1_noise_12086_50">
<feMergeNode in="shape" />
<feMergeNode in="color1" />
</feMerge>
<feTurbulence type="fractalNoise" baseFrequency="0.27129253745079041 0.27129253745079041" stitchTiles="stitch" numOctaves="3" result="noise" seed="3494" />
<feColorMatrix in="noise" type="luminanceToAlpha" result="alphaNoise" />
<feComponentTransfer in="alphaNoise" result="coloredNoise1">
<feFuncA type="discrete" tableValues="0 0 0 0 0 0 0 0 0 0 0 0 0 0 0 0 0 1 1 1 1 1 1 1 1 1 1 1 1 1 1 1 0 0 0 0 0 0 0 0 0 0 0 0 0 0 0 0 0 0 0 0 0 0 0 0 0 0 0 0 0 0 0 0 0 0 0 0 0 0 0 0 0 0 0 0 0 0 0 0 0 0 0 0 0 0 0 0 0 0 0 0 0 0 0 0 0 0 0 0 "/>
</feComponentTransfer>
<feComposite operator="in" in2="effect1_noise_12086_50" in="coloredNoise1" result="noise1Clipped" />
<feFlood flood-color="rgba(255, 255, 255, 0.18)" result="color1Flood" />
<feComposite operator="in" in2="noise1Clipped" in="color1Flood" result="color1" />
<feMerge result="effect2_noise_12086_50">
<feMergeNode in="effect1_noise_12086_50" />
<feMergeNode in="color1" />
</feMerge>
</filter>
<filter id="filter2_nn_12086_50" x="673.181" y="10.6567" width="820.923" height="219.245" filterUnits="userSpaceOnUse" color-interpolation-filters="sRGB">
<feFlood flood-opacity="0" result="BackgroundImageFix"/>
<feBlend mode="normal" in="SourceGraphic" in2="BackgroundImageFix" result="shape"/>
<feTurbulence type="fractalNoise" baseFrequency="0.52662670612335205 0.52662670612335205" stitchTiles="stitch" numOctaves="3" result="noise" seed="2151" />
<feComponentTransfer in="noise" result="coloredNoise1">
<feFuncR type="linear" slope="2" intercept="-0.5" />
<feFuncG type="linear" slope="2" intercept="-0.5" />
<feFuncB type="linear" slope="2" intercept="-0.5" />
<feFuncA type="discrete" tableValues="1 1 1 1 1 1 1 1 1 1 1 1 1 1 1 1 1 1 1 1 1 1 1 1 1 1 1 1 1 1 1 1 1 1 1 1 1 1 1 1 1 1 1 1 1 1 1 1 1 1 1 0 0 0 0 0 0 0 0 0 0 0 0 0 0 0 0 0 0 0 0 0 0 0 0 0 0 0 0 0 0 0 0 0 0 0 0 0 0 0 0 0 0 0 0 0 0 0 0 0 "/>
</feComponentTransfer>
<feComposite operator="in" in2="shape" in="coloredNoise1" result="noise1Clipped" />
<feComponentTransfer in="noise1Clipped" result="color1">
<feFuncA type="table" tableValues="0 0.1" />
</feComponentTransfer>
<feMerge result="effect1_noise_12086_50">
<feMergeNode in="shape" />
<feMergeNode in="color1" />
</feMerge>
<feTurbulence type="fractalNoise" baseFrequency="0.27129253745079041 0.27129253745079041" stitchTiles="stitch" numOctaves="3" result="noise" seed="3494" />
<feColorMatrix in="noise" type="luminanceToAlpha" result="alphaNoise" />
<feComponentTransfer in="alphaNoise" result="coloredNoise1">
<feFuncA type="discrete" tableValues="0 0 0 0 0 0 0 0 0 0 0 0 0 0 0 0 0 1 1 1 1 1 1 1 1 1 1 1 1 1 1 1 0 0 0 0 0 0 0 0 0 0 0 0 0 0 0 0 0 0 0 0 0 0 0 0 0 0 0 0 0 0 0 0 0 0 0 0 0 0 0 0 0 0 0 0 0 0 0 0 0 0 0 0 0 0 0 0 0 0 0 0 0 0 0 0 0 0 0 0 "/>
</feComponentTransfer>
<feComposite operator="in" in2="effect1_noise_12086_50" in="coloredNoise1" result="noise1Clipped" />
<feFlood flood-color="rgba(255, 255, 255, 0.18)" result="color1Flood" />
<feComposite operator="in" in2="noise1Clipped" in="color1Flood" result="color1" />
<feMerge result="effect2_noise_12086_50">
<feMergeNode in="effect1_noise_12086_50" />
<feMergeNode in="color1" />
</feMerge>
</filter>
<filter id="filter3_nn_12086_50" x="-135.16" y="9.19983" width="443.682" height="225.362" filterUnits="userSpaceOnUse" color-interpolation-filters="sRGB">
<feFlood flood-opacity="0" result="BackgroundImageFix"/>
<feBlend mode="normal" in="SourceGraphic" in2="BackgroundImageFix" result="shape"/>
<feTurbulence type="fractalNoise" baseFrequency="0.52662670612335205 0.52662670612335205" stitchTiles="stitch" numOctaves="3" result="noise" seed="2151" />
<feComponentTransfer in="noise" result="coloredNoise1">
<feFuncR type="linear" slope="2" intercept="-0.5" />
<feFuncG type="linear" slope="2" intercept="-0.5" />
<feFuncB type="linear" slope="2" intercept="-0.5" />
<feFuncA type="discrete" tableValues="1 1 1 1 1 1 1 1 1 1 1 1 1 1 1 1 1 1 1 1 1 1 1 1 1 1 1 1 1 1 1 1 1 1 1 1 1 1 1 1 1 1 1 1 1 1 1 1 1 1 1 0 0 0 0 0 0 0 0 0 0 0 0 0 0 0 0 0 0 0 0 0 0 0 0 0 0 0 0 0 0 0 0 0 0 0 0 0 0 0 0 0 0 0 0 0 0 0 0 0 "/>
</feComponentTransfer>
<feComposite operator="in" in2="shape" in="coloredNoise1" result="noise1Clipped" />
<feComponentTransfer in="noise1Clipped" result="color1">
<feFuncA type="table" tableValues="0 0.1" />
</feComponentTransfer>
<feMerge result="effect1_noise_12086_50">
<feMergeNode in="shape" />
<feMergeNode in="color1" />
</feMerge>
<feTurbulence type="fractalNoise" baseFrequency="0.27129253745079041 0.27129253745079041" stitchTiles="stitch" numOctaves="3" result="noise" seed="3494" />
<feColorMatrix in="noise" type="luminanceToAlpha" result="alphaNoise" />
<feComponentTransfer in="alphaNoise" result="coloredNoise1">
<feFuncA type="discrete" tableValues="0 0 0 0 0 0 0 0 0 0 0 0 0 0 0 0 0 1 1 1 1 1 1 1 1 1 1 1 1 1 1 1 0 0 0 0 0 0 0 0 0 0 0 0 0 0 0 0 0 0 0 0 0 0 0 0 0 0 0 0 0 0 0 0 0 0 0 0 0 0 0 0 0 0 0 0 0 0 0 0 0 0 0 0 0 0 0 0 0 0 0 0 0 0 0 0 0 0 0 0 "/>
</feComponentTransfer>
<feComposite operator="in" in2="effect1_noise_12086_50" in="coloredNoise1" result="noise1Clipped" />
<feFlood flood-color="rgba(255, 255, 255, 0.18)" result="color1Flood" />
<feComposite operator="in" in2="noise1Clipped" in="color1Flood" result="color1" />
<feMerge result="effect2_noise_12086_50">
<feMergeNode in="effect1_noise_12086_50" />
<feMergeNode in="color1" />
</feMerge>
</filter>
<clipPath id="clip0_12086_50">
<rect width="1400" height="500" fill="white"/>
</clipPath>
<clipPath id="clip1_12086_50">
<rect width="1748.08" height="697" fill="white" transform="translate(-172 -109)"/>
</clipPath>
<clipPath id="clip2_12086_50">
<rect width="286.858" height="144.078" fill="white" transform="translate(444.908 317.689)"/>
</clipPath>
<clipPath id="clip3_12086_50">
<rect width="100.02" height="74.7071" fill="white" transform="translate(551.422 335.473)"/>
</clipPath>
</defs>
</svg>
